<svg data-name="Layer 1" viewBox="0 0 128 128" xmlns="http://www.w3.org/2000/svg"><path d="M76.13 91.39V71.73a1 1 0 0 0-.23-.64l-5.73-6.89V15.39a1.15 1.15 0 0 0-.07-.39.5.5 0 0 0 0-.13l-5.82-10a1 1 0 0 0-1.73 0l-5.82 10a.5.5 0 0 0-.05.13 1.17 1.17 0 0 0-.08.36V64.2l-5.72 6.89a1 1 0 0 0-.23.64v19.66a1 1 0 0 0 1 1h10.7v2.75a1 1 0 1 0 2 0v-2.75h10.78a1 1 0 0 0 1-1Zm-17.6-75h9.64v4h-9.64Zm4.82-9 4.1 7h-8.19Zm-10.77 64.7 4-4.76v23.06h-4Zm11.77 18.3V56.73a1 1 0 1 0-2 0v33.66h-3.82v-68h9.64v68Zm9.78 0h-4V67.33l4 4.76Z" fill="#ff7700" class="fill-000000"></path><path d="M59 94.73a1 1 0 0 0-1 1v10.83a4.21 4.21 0 0 0-3.25 2.73 1 1 0 0 0 .6 1.28 1 1 0 0 0 .34.06 1 1 0 0 0 .94-.67 2.24 2.24 0 0 1 2.85-1.36 1 1 0 1 0 .67-1.88H60v-11a1 1 0 0 0-1-.99ZM68.69 101.23v-5.5a1 1 0 0 0-2 0v5.5a1 1 0 1 0 2 0ZM60.22 112.81a1.38 1.38 0 0 1 1.33 1 1 1 0 0 0 1.81.3 2.55 2.55 0 0 1 4.73 1.35 1 1 0 0 0 2 0 4.56 4.56 0 0 0-7.38-3.59 3.38 3.38 0 0 0-2.49-1.1 1 1 0 0 0 0 2ZM73.22 109.68a1 1 0 0 0 2 0 6.13 6.13 0 0 0-6.13-6.12 1 1 0 0 0 0 2 4.13 4.13 0 0 1 4.13 4.12ZM105.22 109.06a9.75 9.75 0 0 0-19-3.13 6.41 6.41 0 0 0-2.77-.62 6.5 6.5 0 0 0-6.5 6.5 1 1 0 0 0 2 0 4.51 4.51 0 0 1 4.5-4.5 4.44 4.44 0 0 1 2.78 1 1 1 0 0 0 1.6-.61 7.75 7.75 0 0 1 15.37 1.39 1 1 0 0 0 2 0ZM7.82 123.09a8 8 0 0 0 6.18-.21 1 1 0 0 0-.83-1.82 6.08 6.08 0 0 1-8-3 6.07 6.07 0 0 1 2.89-8 9.38 9.38 0 0 0 1.58.88 1.09 1.09 0 0 0 .36.06 1 1 0 0 0 .39-1.92 7.47 7.47 0 0 1-1-13.26 1 1 0 0 0 .14-1.61 4.17 4.17 0 0 1-1.46-3.17A4.24 4.24 0 0 1 15.2 88a1 1 0 0 0 .91.24 1 1 0 0 0 .71-.63 5.82 5.82 0 0 1 11.24 1.11A7.43 7.43 0 0 0 22 96a1 1 0 0 0 2 0 5.44 5.44 0 1 1 8.61 4.4 8.86 8.86 0 0 0-5.37 7.08 6.62 6.62 0 0 0-1-.09 6.38 6.38 0 0 0-4.54 1.88 1 1 0 0 0 0 1.42 1 1 0 0 0 1.41 0 4.41 4.41 0 0 1 7.54 3.12 1 1 0 0 0 2 0 6.42 6.42 0 0 0-3.47-5.7 6.84 6.84 0 0 1 4.2-5.87 6.83 6.83 0 0 1 9.4 5.83 1 1 0 0 0 1.37.86 4.85 4.85 0 0 1 1.83-.36 5 5 0 0 1 5 5 1 1 0 0 0 2 0 7 7 0 0 0-8.35-6.85 8.87 8.87 0 0 0-8.63-7h-.15a7.41 7.41 0 0 0-5.75-11.14 7.83 7.83 0 0 0-14.61-2.88 6.16 6.16 0 0 0-3.19-.89 6.23 6.23 0 0 0-5 10 9.45 9.45 0 0 0-1 13.85 8.1 8.1 0 0 0-3.29 4 8.09 8.09 0 0 0 4.74 10.39ZM91.8 119.81a1 1 0 0 0 2 0 6.41 6.41 0 0 0-11-4.54 1 1 0 0 0 0 1.42 1 1 0 0 0 1.41 0 4.36 4.36 0 0 1 3.12-1.3 4.42 4.42 0 0 1 4.47 4.42ZM125.43 103.28A7.65 7.65 0 0 0 122 96.9a8.1 8.1 0 0 0 .71-3.33A8.26 8.26 0 0 0 107 90a5.81 5.81 0 0 0-4 10.57 1 1 0 1 0 1.12-1.65 3.81 3.81 0 0 1 3.19-6.81 1 1 0 0 0 1.22-.63 6.26 6.26 0 0 1 12.16 2.1 6.18 6.18 0 0 1-.9 3.21 1 1 0 0 0-.1.81 1 1 0 0 0 .53.61 5.6 5.6 0 0 1 1.06 9.5 8.45 8.45 0 0 0-2.87-1.65 1 1 0 1 0-.64 1.89 6.66 6.66 0 0 1-.41 12.74 1 1 0 0 0-.7 1.23 1 1 0 0 0 1 .74 1.15 1.15 0 0 0 .26 0A8.68 8.68 0 0 0 124 112a8.73 8.73 0 0 0-1.34-2.8 7.62 7.62 0 0 0 2.77-5.92Z" fill="#ff7700" class="fill-000000"></path></svg>