<svg viewBox="0 0 512 512" xmlns="http://www.w3.org/2000/svg"><path d="M479.94 212.56a62.182 62.182 0 0 1-19.15-5.04c-2.06-1.36-8.88-6.69-3.02-14.86 8.045-13.885 3.406-36.208-22.896-41.554a145.263 145.263 0 0 0-23.252-45.826c-14.217-18.643-32.94-33.347-55.65-43.705-26.915-12.275-59.667-18.499-97.346-18.499s-70.432 6.224-97.347 18.5c-22.71 10.357-41.433 25.062-55.65 43.704a145.1 145.1 0 0 0-22.972 44.902c-31.98 2.769-38.02 27.53-29.347 42.478 6.83 9.51-3.58 15.21-3.59 15.21a62.615 62.615 0 0 1-18.38 4.69c-29.123 2.886-32.502 55.26 19.56 65.728v28.322c0 10.56 7.87 20.54 21.85 29.37.03 16.79.77 49.35 23.41 78.55 28.57 36.83 82.22 55.5 159.48 55.5s130.91-18.67 159.47-55.5c22.07-28.45 23.34-60.08 23.41-77.22 15.33-9.15 24.02-19.6 24.02-30.7v-28.792c49.79-11.467 46.113-62.413 17.4-65.258ZM258.625 56.076c165.121 0 169.888 122.097 169.888 136.02 0 11.568-17.62 24.076-47.132 33.459-32.695 10.394-76.29 16.119-122.755 16.119s-90.06-5.725-122.756-16.12c-29.513-9.382-47.132-21.89-47.132-33.458 0-13.923 4.767-136.02 169.887-136.02ZM366.4 301.305a172.549 172.549 0 0 0-11.739 21.145c-1.11 2.26-2.15 4.46-3.14 6.54-1.02 2.14-1.96 4.12-2.81 5.86l-13.29 27.01a10.567 10.567 0 0 1-8.74 5.99 10.722 10.722 0 0 1-9.66-4.39l-10-13.7c-2.61-3.59-5.72-8.64-9-13.99q-1.755-2.865-3.57-5.78c-7.055-11.35-14.762-22.89-23.438-30.096a62.884 62.884 0 0 0 25.668-10.724 19.631 19.631 0 0 1 23.15.3c7.37 5.41 19.48 10.68 39.06 11.74 2.64.14 5.135.164 7.51.095ZM64.861 279.963a135.568 135.568 0 0 0 24.719-1.223 19.825 19.825 0 0 1 18.12 7.03c6.13 7.57 18.94 16.81 44.69 15.44 19.69-1.06 31.81-6.39 39.17-11.82a19.867 19.867 0 0 1 23.31-.53 63.785 63.785 0 0 0 10.048 5.794l-.038.106 1.37.492a67.992 67.992 0 0 0 8.443 3.032l21.907 7.866c7.49 2.69 15.73 13.55 22.93 24.6q-11.22.45-22.81.45c-57.85 0-109.87-8.38-145.89-21.71q-8.28-3.075-15.39-6.47c-14.3-6.852-24.824-14.65-30.58-23.057Zm178.414 91.949-7.585 4.434c-13.213 5.53-22.935 16.348-31.47 27.227l-12.822 16.308a10.891 10.891 0 0 1-18.03-1.36L157.4 390.358c-.972-1.714-2.087-3.8-3.268-6.009-4.255-7.959-9.31-17.398-15.096-24.053 29.912 6.64 65.62 10.824 104.24 11.616ZM404.84 406.56c-25.97 33.49-76.17 50.47-149.2 50.47s-123.23-16.98-149.2-50.47c-17.19-22.16-20.1-47.15-20.59-63.45 4.844 2.287 10.141 4.468 15.832 6.538l24.305 16.032c5.705 4.271 12.305 16.613 16.68 24.799 1.22 2.281 2.373 4.436 3.424 6.29l15.97 28.17a23.871 23.871 0 0 0 19.009 12.032q.898.067 1.79.067a23.825 23.825 0 0 0 18.76-9.125l12.822-16.31c7.53-9.596 15.961-19.072 26.593-23.4a6.466 6.466 0 0 0 .83-.41l27.131-15.86a623.504 623.504 0 0 0 36.834-1.763l.69.95a23.59 23.59 0 0 0 19.17 9.77c.7 0 1.41-.03 2.12-.09a23.598 23.598 0 0 0 19.28-13.21l1.16-2.35c30.94-4.89 57.46-12.19 77.14-21.12-.58 16.31-3.71 40.73-20.55 62.44Zm11.93-102.96q-7.11 3.33-15.39 6.34a281.601 281.601 0 0 1-30.37 8.99c4-7.47 8.42-14.53 12.62-17.98l5.05-4.148a38.389 38.389 0 0 0 14.89-11.032 19.852 19.852 0 0 1 18.13-7.03 132.735 132.735 0 0 0 26.965 1.1c-5.898 8.696-16.897 16.743-31.895 23.76Z" fill="#ffffff" class="fill-000000"></path><path d="M193.057 129.298c4.112 2.375 8.634 4.09 11.966 4.09 1.958 0 3.504-.593 4.313-1.993 2.184-3.784-3.426-9.281-9.955-13.05s-14.095-5.88-16.279-2.097c-.739 1.28-.984 3.517 2.046 6.907a32.97 32.97 0 0 0 7.909 6.143ZM344.938 145.421a32.955 32.955 0 0 0 9.275 3.777 13.26 13.26 0 0 0 2.706.31c2.533 0 3.732-1.01 4.298-1.99.739-1.28.984-3.516-2.047-6.907a36.691 36.691 0 0 0-17.183-9.92c-4.452-.932-6.265.4-7.004 1.68s-.983 3.517 2.047 6.906a32.948 32.948 0 0 0 7.908 6.144ZM285.306 128.431c3.498 0 8.29-3.873 12.1-8.498 4.792-5.819 8.12-12.934 4.747-15.712s-9.718 1.851-14.511 7.67c-4.792 5.82-8.12 12.935-4.747 15.713a3.682 3.682 0 0 0 2.41.827ZM250.533 161.17c-.745 1.29-.99 3.546 2.072 6.972a37.196 37.196 0 0 0 17.414 10.054 13.478 13.478 0 0 0 2.74.314c2.556 0 3.764-1.018 4.334-2.005.744-1.29.99-3.547-2.073-6.973a33.414 33.414 0 0 0-8.014-6.226c-6.61-3.816-14.268-5.958-16.473-2.136ZM172.667 178.51a13.514 13.514 0 0 0 2.739-.314 33.425 33.425 0 0 0 9.4-3.828c6.61-3.816 12.292-9.377 10.086-13.198s-9.863-1.68-16.473 2.137-12.293 9.377-10.087 13.198c.57.988 1.778 2.006 4.335 2.006ZM231.843 96.106c3.37 0 7.955-1.74 12.122-4.146 6.61-3.817 12.293-9.378 10.087-13.198-.744-1.29-2.576-2.628-7.074-1.692a37.196 37.196 0 0 0-17.414 10.054c-3.062 3.426-2.817 5.683-2.072 6.972.815 1.412 2.374 2.01 4.35 2.01Z" fill="#ffffff" class="fill-000000"></path></svg>