<svg viewBox="0 0 512 512" xmlns="http://www.w3.org/2000/svg"><path d="M417.077 320.565a59.364 59.364 0 0 0 .613-8.335c0-15.309-6.058-30.486-17.521-43.904a8.482 8.482 0 0 0-.16-.194 102.55 102.55 0 0 0-11.157-11.045A40.341 40.341 0 0 1 389.43 238a25.749 25.749 0 0 1 2.17-5.2c1.82-3.33 5.99-11.52 5.99-16.42 0-13.45-11.14-25.8-29.73-35.51h-.01a101.168 101.168 0 0 1-19.7 11.21 152.67 152.67 0 0 1-16.28 6 5.44 5.44 0 0 1-5.97-8.44 5.39 5.39 0 0 1 2.78-1.97c13.92-4.29 25.54-9.92 33.89-16.45l.01-.01a4.766 4.766 0 0 1 .67-.68c8.28-6.91 12.96-14.78 12.96-23.13 0-13.15-11.58-25.09-30.52-33.96-.29-.14-.59-.28-.89-.42a75.783 75.783 0 0 1-16.25 10.7c-17.55 8.76-40.64 13.59-65 13.59q-2.16 0-4.29-.06a5.431 5.431 0 0 1 .17-10.86h.13c1.32.03 2.65.04 3.99.04 32.55 0 60.81-9.14 75.08-22.57a5.332 5.332 0 0 1 .67-.85c5.4-5.59 8.43-11.86 8.43-18.5a21.523 21.523 0 0 0-.84-5.97 32.643 32.643 0 0 0-7.195-48.713 29.388 29.388 0 0 1 14.819-5.794 5.5 5.5 0 1 0-1.362-10.915c-11.397 1.421-19.327 6.24-24.711 12.166a32.522 32.522 0 0 0-20.221 2.426c-1.02-2.46-1.89-4.81-2.63-7a5.398 5.398 0 0 0-9.66-1.2c-11.84 18.51-36.53 22.62-36.53 22.62l.05.05a157.233 157.233 0 0 0-27.21 2.95c-26.67 5.36-46.63 17.36-51.75 31.94a22.083 22.083 0 0 0-1.31 7.44c0 5.86 2.36 11.44 6.64 16.5.57.68 1.17 1.33 1.79 2a2.102 2.102 0 0 1 .2.22c7.25 7.11 18.37 13.05 31.98 17.15a5.445 5.445 0 0 1 3.89 5.21v.01a5.439 5.439 0 0 1-6.99 5.21 113.494 113.494 0 0 1-18.15-7.09 75.62 75.62 0 0 1-16.31-10.75c-19.53 8.92-31.53 21.06-31.53 34.43 0 8.35 4.69 16.22 12.97 23.13.05.05.11.09.16.15l.01.01c19.21 15.48 56.66 25.99 99.71 25.99 7.07 0 13.99-.28 20.7-.83a5.443 5.443 0 1 1 .88 10.85c-7.06.57-14.28.86-21.58.86-31.78 0-61.82-5.5-84.61-15.48a100.521 100.521 0 0 1-19.77-11.26c-18.66 9.71-29.85 22.08-29.85 35.56a26.555 26.555 0 0 0 3.36 12.58 25.812 25.812 0 0 1 2.52 6.84 32.46 32.46 0 0 1-.057 13.725 121.375 121.375 0 0 0-12.842 10.199c-.474.44-.934.886-1.392 1.33l-.343.332a8.981 8.981 0 0 0-.183.172h-.001c-15.637 15.118-23.902 32.64-23.902 50.672a59.378 59.378 0 0 0 .767 9.352c-9.003 6.07-14.426 14.186-14.426 23.222 0 5.894 2.356 11.657 6.818 16.688q.11.135.228.265c.27.298 27.206 30.2 44.381 68.14a178.126 178.126 0 0 1 9.933 27.306c.045.184.093.364.141.54 2.274 13.613 15.464 25.855 37.218 34.517 20.6 8.202 47.429 12.72 75.543 12.72s54.942-4.518 75.543-12.72c21.758-8.664 34.95-20.912 37.219-34.528 12.868-48.78 51.902-91.538 54.262-94.089 5.764-5.505 8.827-11.965 8.868-18.703.099-2.842-.476-14.903-15.898-24.375ZM305.54 46.62a19.51 19.51 0 0 1 7.91-7.01c.17-.08.34-.16.51-.23a19.55 19.55 0 0 1 6.946-1.706 38.013 38.013 0 0 0-2.542 12.058 5.49 5.49 0 0 0 5.314 5.642q.094.003.187.003a5.513 5.513 0 0 0 5.494-5.302 29.968 29.968 0 0 1 2.426-9.843A19.633 19.633 0 0 1 341.6 55.02v.02a19.677 19.677 0 1 1-36.06-8.42ZM109.48 312.23c0-14.396 6.869-28.66 19.86-41.252.063-.056.126-.114.173-.16l.445-.43c.395-.384.794-.77 1.165-1.116a118.665 118.665 0 0 1 22.744-16.089 332.04 332.04 0 0 0 4.235-2.008c16.988-8.148 40.25-19.305 76.424-1.785 28.568 13.84 50.994 21.95 75.648 21.95 14.284-.001 29.319-2.725 46.716-8.635a410.839 410.839 0 0 0 4.543-1.68 14.81 14.81 0 0 1 13.836 1.81c.082.07.166.136.252.2a94.306 94.306 0 0 1 14.499 13.42c.048.06.097.12.148.179 9.636 11.225 14.522 23.201 14.522 35.596q0 1.294-.073 2.586a533.7 533.7 0 0 0-5.223-1.553 85.267 85.267 0 0 0-12.282-2.238 93.816 93.816 0 0 0-10.13-.546 90.782 90.782 0 0 0-18.923 1.952 72.426 72.426 0 0 0-15.336 5.018 13.041 13.041 0 0 1-10.889-.006 71.55 71.55 0 0 0-13.858-4.673 89.99 89.99 0 0 0-20.386-2.291 87.156 87.156 0 0 0-25.692 3.718 68.575 68.575 0 0 0-8.555 3.252 12.867 12.867 0 0 1-10.896-.005 74.32 74.32 0 0 0-19.08-5.719 92.608 92.608 0 0 0-31.547.218 73.855 73.855 0 0 0-17.866 5.506 12.857 12.857 0 0 1-4.05 1.133c-.12.013-.24.01-.36.02a12.86 12.86 0 0 1-6.48-1.159 73.74 73.74 0 0 0-17.745-5.48 91.808 91.808 0 0 0-16.496-1.484c-1.22 0-4.092.097-4.326.107q-1.613.073-3.197.197c-.119.01-.238.017-.356.027-6.416.532-20.3 4.177-21.356 4.566q-.107-1.57-.107-3.146Zm310.502 32.243a9.328 9.328 0 0 0-.007.33c0 3.228-1.666 6.437-4.95 9.538a6.62 6.62 0 0 0-.268.267c-1.768 1.875-43.36 46.429-57.451 99.691a6.581 6.581 0 0 0-.246 1.056c-1.312 8.9-11.97 17.949-29.243 24.826-19.107 7.609-44.227 11.799-70.734 11.799s-51.627-4.19-70.734-11.798c-17.273-6.878-27.932-15.927-29.243-24.827a6.565 6.565 0 0 0-.252-1.072l-.057-.216-.04-.154a191.107 191.107 0 0 0-10.667-29.381c-17.393-38.42-43.47-68.028-46.373-71.264q-.103-.124-.211-.245c-2.445-2.699-3.685-5.464-3.685-8.219 0-10.086 17.66-21.325 43.002-21.325 10.546 0 20.762 2.046 28.762 5.76a25.958 25.958 0 0 0 7.428 2.173l7.73 42.012a5.436 5.436 0 0 0 10.7-1.935l-7.534-40.918a26.006 26.006 0 0 0 3.531-1.331c8.005-3.716 18.22-5.762 28.767-5.762 10.554 0 20.77 2.046 28.762 5.76a26.016 26.016 0 0 0 4.932 1.707v41.512a5.436 5.436 0 0 0 10.873 0v-41.271a25.956 25.956 0 0 0 6.05-1.946c8.004-3.716 18.22-5.762 28.765-5.762 10.553 0 20.772 2.046 28.772 5.76.68.317 1.373.592 2.07.847l-7.664 41.403a5.436 5.436 0 1 0 10.699 1.936l7.743-41.846a25.893 25.893 0 0 0 8.998-2.338c8.004-3.716 18.223-5.762 28.775-5.762a74.81 74.81 0 0 1 22.097 3.202 57.315 57.315 0 0 1 6.256 2.37c14.868 6.654 14.664 15.068 14.647 15.423Z" fill="#ffffff" class="fill-000000"></path></svg>