<?xml version="1.0" encoding="UTF-8"?>
<!DOCTYPE svg PUBLIC "-//W3C//DTD SVG 1.0//EN" "http://www.w3.org/TR/2001/REC-SVG-20010904/DTD/svg10.dtd">
<!-- Creator: CorelDRAW 2021 (64 Bit) -->
<svg xmlns="http://www.w3.org/2000/svg" xml:space="preserve" width="67.7332mm" height="25.4mm" version="1.0" style="shape-rendering:geometricPrecision; text-rendering:geometricPrecision; image-rendering:optimizeQuality; fill-rule:evenodd; clip-rule:evenodd"
viewBox="0 0 6773.32 2540"
 xmlns:xlink="http://www.w3.org/1999/xlink"
 xmlns:xodm="http://www.corel.com/coreldraw/odm/2003">
 <defs>
  <style type="text/css">
   <![CDATA[
    .fil1 {fill:#FF7700}
    .fil0 {fill:#FF7700}
    .fil5 {fill:black}
    .fil3 {fill:#FF7700}
    .fil2 {fill:#FF7700}
    .fil4 {fill:white}
   ]]>
  </style>
 </defs>
 <g id="Camada_x0020_1">
  <metadata id="CorelCorpID_0Corel-Layer"/>
  <path class="fil0" d="M204.08 663.46c-0.27,-139.17 -0.81,-193.35 -0.88,-220.76 -0.06,-27.42 0.34,-28.1 0.68,-28.7 0.33,-0.6 0.6,-1.14 47.21,-1.54 46.62,-0.4 139.57,-0.67 186.45,-0.67 46.88,0 47.69,0.27 48.22,0.74 0.54,0.47 0.81,1.14 1.95,79.59 1.13,78.44 3.13,234.66 4.21,314.25 1.07,79.58 1.2,82.53 1.6,84.8 0.4,2.27 1.07,3.88 1.74,5.49 0.66,1.6 1.34,3.2 2.88,5.21 1.53,2.01 3.94,4.42 7.28,6.22 3.35,1.81 7.63,3.01 22.88,3.41 15.24,0.41 41.46,0 62.93,-0.66 21.46,-0.67 38.19,-1.61 47.62,-1.74 9.42,-0.14 11.56,0.53 16.64,4.34 5.08,3.81 13.11,10.77 58.66,50.63 45.54,39.86 128.6,112.62 174.15,152.48 45.54,39.86 53.57,46.81 58.31,51.03 4.75,4.21 6.23,5.68 7.03,18.06 0.8,12.37 0.93,35.64 1.33,84.86 0.4,49.22 1.08,124.39 1.34,180.97 0.27,56.58 0.14,94.57 0.07,114.3 -0.07,19.72 -0.07,21.2 -0.8,22.53 -0.74,1.34 -2.21,2.55 -13.11,3.28 -10.91,0.73 -31.23,1 -79.25,1.13 -48.02,0.14 -123.72,0.14 -162.38,-0.2 -38.66,-0.33 -40.26,-1 -40.79,-5.68 -0.54,-4.68 0,-13.38 0.06,-70.42 0.07,-57.05 -0.34,-162.45 -0.34,-226.72 0,-64.27 0.41,-87.41 0.08,-100.65 -0.34,-13.24 -1.41,-16.58 -2.88,-19.39 -1.48,-2.81 -3.34,-5.08 -7.56,-6.75 -4.21,-1.67 -10.76,-2.75 -34.11,-3.01 -23.34,-0.27 -63.46,0.26 -84.79,1.33 -21.34,1.07 -23.88,2.68 -26.22,4.42 -2.35,1.73 -4.48,3.6 -6.22,6.55 -1.74,2.94 -3.08,6.96 -4.08,51.9 -1,44.94 -1.68,130.81 -1.74,196.82 -0.07,66 0.47,112.15 0.67,136.36 0.2,24.21 0.07,26.48 -0.6,28.42 -0.67,1.94 -1.88,3.55 -7.82,4.55 -5.96,1 -16.66,1.41 -57.12,1.61 -40.46,0.2 -110.68,0.2 -151.61,0.2 -40.93,0 -52.57,0 -59.32,-0.2 -6.76,-0.2 -8.63,-0.61 -9.7,-2.48 -1.07,-1.88 -1.34,-5.21 -1.47,-22.73 -0.14,-17.53 -0.14,-49.23 -0.27,-104.2 -0.13,-54.97 -0.4,-133.22 -0.53,-284.43 -0.14,-151.21 -0.14,-375.39 -0.4,-514.55z"/>
  <path class="fil1" d="M1044.86 1221.85c-0.14,-64.91 -0.81,-173.18 -1.14,-231.26 -0.34,-58.09 -0.34,-65.99 0.27,-70.54 0.6,-4.55 1.8,-5.76 8.56,-6.23 6.76,-0.46 19.07,-0.2 55.95,0 36.87,0.2 98.29,0.34 139.58,0.34 41.29,0 62.44,-0.14 73.96,0.13 11.5,0.27 13.37,0.94 14.71,2.35 1.34,1.4 2.15,3.54 2.88,60.89 0.73,57.35 1.41,169.91 1.54,235.62 0.13,65.71 -0.27,84.58 -0.41,95.09 -0.13,10.51 0.01,12.65 0.41,14.66 0.4,2.01 1.07,3.88 1.6,5.62 0.54,1.74 0.94,3.34 3.22,4.48 2.28,1.14 6.42,1.81 28.24,2.14 21.81,0.34 61.3,0.34 84.99,0.14 23.68,-0.2 31.58,-0.61 37.13,-2.21 5.56,-1.61 8.77,-4.42 10.78,-9.71 2,-5.28 2.81,-13.04 2.94,-32.98 0.13,-19.94 -0.4,-52.07 -1.2,-103.19 -0.81,-51.13 -1.88,-121.26 -2.21,-169.77 -0.34,-48.52 0.07,-75.42 1.07,-89.21 1,-13.78 2.61,-14.45 5.69,-14.79 3.08,-0.33 7.62,-0.33 12.84,0.41 5.22,0.73 11.12,2.2 25.51,13.72 14.38,11.5 37.27,33.05 71.8,63.84 34.53,30.77 80.7,70.79 109.54,95.69 28.84,24.89 40.35,34.66 48.32,41.36 7.96,6.68 12.37,10.3 14.52,19.6 2.14,9.3 2.01,24.29 2.07,67.65 0.07,43.37 0.34,115.1 0.74,173.19 0.4,58.08 0.94,102.52 1.14,132.83 0.2,30.31 0.06,46.51 -0.68,56.15 -0.73,9.63 -2.07,12.71 -3.87,14.45 -1.81,1.74 -4.09,2.14 -20.01,2.34 -15.93,0.2 -45.51,0.2 -157.4,0.53 -111.88,0.34 -306.08,1.01 -413.68,1.35 -107.61,0.33 -128.62,0.33 -140.4,0.33 -11.78,0 -14.32,0 -16.05,-1.4 -1.75,-1.41 -2.69,-4.22 -3.09,-19.61 -0.4,-15.39 -0.26,-43.37 -0.26,-86.46 0,-43.1 -0.14,-101.32 0,-141.2 0.13,-39.88 0.53,-61.43 0.4,-126.34z"/>
  <path class="fil0" d="M1891.85 1527.87c-0.1,-38.26 -0.18,-101.48 -0.18,-180.99 0,-79.5 0.08,-175.31 0.08,-243.54 0,-68.24 -0.08,-108.92 -0.12,-135.59 -0.05,-26.68 -0.05,-39.37 0.12,-45.79 0.18,-6.43 0.53,-6.61 2.95,-6.96 2.43,-0.35 6.92,-0.88 29.51,-1.14 22.58,-0.27 63.25,-0.27 133.48,-0.18 70.22,0.09 169.97,0.26 229.54,0.18 59.57,-0.09 78.93,-0.44 90.03,-0.09 11.09,0.35 13.91,1.41 22.36,8.23 8.45,6.83 22.54,19.42 62.21,53.94 39.66,34.5 104.91,90.95 140.22,121.99 35.3,31.03 40.67,36.67 44.02,40.23 3.35,3.57 4.66,5.07 5.46,19.55 0.79,14.48 1.05,41.96 1.23,69.87 0.18,27.91 0.26,56.26 0.31,88.67 0.04,32.39 0.04,68.84 0.13,109.65 0.09,40.81 0.27,85.99 0.18,111.57 -0.09,25.57 -0.44,31.56 -0.7,36.71 -0.27,5.15 -0.45,9.46 -0.36,12.59 0.09,3.12 0.44,5.06 -1.45,6.16 -1.9,1.1 -6.04,1.37 -32.23,1.76 -26.19,0.4 -74.44,0.93 -118.25,1.15 -43.8,0.22 -83.16,0.13 -105.96,0.05 -22.81,-0.09 -29.06,-0.18 -32.54,-0.8 -3.48,-0.62 -4.18,-1.76 -4.53,-12.54 -0.36,-10.79 -0.36,-31.22 -0.36,-67.18 0,-35.97 0,-87.48 -0.08,-131.16 -0.09,-43.67 -0.27,-79.5 -0.4,-110.89 -0.13,-31.39 -0.22,-58.34 -0.26,-74.45 -0.04,-16.11 -0.04,-21.4 -1.67,-25.31 -1.63,-3.92 -4.89,-6.47 -10.83,-7.88 -5.95,-1.41 -14.58,-1.67 -36.46,-1.81 -21.88,-0.13 -57.01,-0.13 -77.52,-0.08 -20.52,0.04 -26.42,0.13 -30.39,0.96 -3.96,0.84 -5.98,2.42 -7.3,4.59 -1.32,2.15 -1.94,4.87 -2.33,13.99 -0.4,9.11 -0.57,24.61 -0.71,58.29 -0.13,33.68 -0.22,85.54 -0.3,136.69 -0.09,51.16 -0.18,101.61 -0.23,136.04 -0.04,34.42 -0.04,52.83 -0.04,63.36 0,10.51 0,13.15 -0.61,14.74 -0.62,1.58 -1.86,2.11 -10.62,2.46 -8.76,0.35 -25.04,0.54 -69.15,0.67 -44.12,0.13 -116.05,0.22 -156.33,0.31 -40.29,0.08 -48.92,0.17 -53.58,-0.36 -4.67,-0.53 -5.38,-1.67 -5.77,-8.89 -0.4,-7.22 -0.49,-20.51 -0.57,-58.77z"/>
  <path class="fil2" d="M5279.14 1276c-0.54,-38.71 0.17,-90.45 8.91,-133.98 8.75,-43.53 25.52,-78.85 48.89,-112.03 23.37,-33.19 53.34,-64.23 88.84,-86.17 35.5,-21.94 76.53,-34.79 119.52,-41.21 43,-6.42 87.96,-6.42 126.13,-4.28 38.18,2.14 69.58,6.42 98.66,16.59 29.07,10.17 55.84,26.23 80.99,46.21 25.16,19.98 48.7,43.88 67.43,71.53 18.74,27.65 32.65,59.05 43,93.48 10.35,34.43 17.12,71.9 16.77,107.22 -0.36,35.32 -7.85,68.5 -11.6,85.09 -3.75,16.59 -3.75,16.59 -33.72,16.77 -29.97,0.18 -89.91,0.54 -154.13,0.9 -64.22,0.35 -132.73,0.71 -167.7,0.89 -34.96,0.17 -36.39,0.17 -38.17,2.32 -1.78,2.14 -3.93,6.42 1.07,13.38 4.99,6.95 17.12,16.59 31.58,25.15 14.45,8.56 31.22,16.05 50.66,21.41 19.45,5.35 41.57,8.56 61.72,11.42 20.17,2.85 38.36,5.34 66.55,4.1 28.18,-1.25 66.36,-6.24 85.45,-8.74 19.09,-2.5 19.09,-2.5 21.05,16.77 1.97,19.26 5.89,57.8 9.63,91.34 3.75,33.53 7.32,62.08 8.21,77.06 0.89,14.99 -0.89,16.42 -6.78,19.81 -5.88,3.39 -15.87,8.73 -51.38,12.49 -35.5,3.74 -96.51,5.88 -150.92,4.45 -54.41,-1.43 -102.22,-6.42 -144.5,-15.34 -42.28,-8.92 -79.03,-21.77 -115.43,-44.96 -36.39,-23.19 -72.42,-56.73 -98.47,-92.05 -26.05,-35.32 -42.11,-72.43 -51.03,-103.82 -8.91,-31.41 -10.7,-57.09 -11.23,-95.8zm317.93 -79.03c27.08,0.18 66.79,-0.18 88.99,-0.41 22.21,-0.24 26.91,-0.36 29.9,-0.94 3,-0.59 4.29,-1.64 4.37,-7.2 0.07,-5.56 -1.08,-15.63 -4.9,-26.73 -3.81,-11.1 -10.31,-23.24 -18.96,-32.31 -8.65,-9.07 -19.45,-15.06 -34.2,-17.99 -14.74,-2.94 -33.42,-2.83 -46.93,-1.82 -13.51,1 -21.85,2.87 -31.13,8.05 -9.27,5.17 -19.47,13.63 -26.93,24.26 -7.46,10.64 -12.18,23.44 -14.58,32.23 -2.39,8.79 -2.47,13.57 -2.35,16.45 0.12,2.88 0.43,3.85 7.81,4.69 7.38,0.84 21.83,1.55 48.91,1.72z"/>
  <path class="fil0" d="M6090.68 1489.98c-0.46,-47.56 -1.14,-127.25 -1.6,-201.98 -0.47,-74.73 -0.74,-144.49 -0.88,-201.3 -0.13,-56.82 -0.13,-100.7 0.07,-125.31 0.2,-24.62 0.61,-29.99 2.68,-32.74 2.08,-2.75 5.84,-2.88 38.91,-2.95 33.07,-0.07 95.46,-0.07 166.29,-0.27 70.84,-0.2 150.13,-0.6 195.54,-0.8 45.41,-0.2 56.95,-0.2 63.79,0 6.85,0.2 8.99,0.6 10.13,3.76 1.14,3.15 1.28,9.05 1.55,25.35 0.26,16.3 0.67,43 1.2,75.34 0.54,32.33 1.21,70.29 1.55,94.98 0.33,24.68 0.33,36.09 -0.34,42.39 -0.67,6.31 -2.01,7.52 -11.61,8.32 -9.59,0.8 -27.43,1.21 -55.8,1.68 -28.38,0.47 -67.29,1.01 -88.21,1.88 -20.93,0.87 -23.89,2.08 -26.03,3.82 -2.15,1.75 -3.49,4.02 -4.77,8.18 -1.27,4.16 -2.48,10.19 -2.95,22.67 -0.47,12.48 -0.2,31.4 -0.07,58.7 0.14,27.3 0.14,62.99 0.69,102.25 0.55,39.25 1.66,82.07 2.54,117.01 0.89,34.94 1.56,61.99 1.96,79.53 0.4,17.53 0.54,25.55 0.06,29.9 -0.47,4.35 -1.56,5.03 -3.18,5.41 -1.62,0.38 -3.76,0.47 -15.58,0.76 -11.81,0.29 -33.29,0.78 -72.47,1.03 -39.19,0.25 -96.07,0.25 -131.69,0.18 -35.62,-0.06 -49.98,-0.2 -58.19,-0.3 -8.21,-0.11 -10.3,-0.2 -11.42,-0.91 -1.12,-0.72 -1.3,-2.08 -1.33,-8.54 -0.03,-6.47 0.07,-18.04 -0.02,-31.55 -0.08,-13.5 -0.35,-28.93 -0.82,-76.49z"/>
  <path class="fil3" d="M3441 2074.7c-56.92,13 -134.43,29.8 -193.79,40.38 -59.35,10.57 -100.55,14.9 -146.08,12.47 -45.54,-2.44 -95.42,-11.66 -135.25,-27.92 -39.85,-16.27 -69.67,-39.57 -93.51,-70.47 -23.85,-30.9 -41.75,-69.39 -45.27,-114.92 -3.52,-45.54 7.32,-98.11 26.57,-137.41 19.24,-39.31 46.88,-65.32 79.68,-87.55 32.79,-22.22 70.74,-40.66 94.87,-51.77 24.12,-11.11 34.42,-14.9 39.57,-16.8 5.15,-1.9 5.15,-1.9 1.89,-4.06 -3.25,-2.18 -9.76,-6.51 -20.32,-10.3 -10.58,-3.8 -25.21,-7.06 -49.87,-21.69 -24.67,-14.64 -59.37,-40.66 -85.11,-62.61 -25.75,-21.95 -42.55,-39.84 -60.44,-65.05 -17.89,-25.2 -36.87,-57.73 -44.73,-98.38 -7.86,-40.66 -4.6,-89.45 -2.16,-114.65 2.44,-25.21 4.06,-26.83 0.27,-31.44 -3.79,-4.61 -13.01,-12.2 -20.87,-25.48 -7.86,-13.28 -14.37,-32.26 -16.26,-57.73 -1.9,-25.48 0.8,-57.46 13,-87 12.2,-29.54 33.88,-56.65 56.92,-77.25 23.04,-20.6 47.44,-34.69 67.5,-42.55 20.05,-7.86 35.77,-9.49 51.22,-8.95 15.45,0.54 30.62,3.26 44.99,6.78 14.37,3.52 27.92,7.86 45,6.24 17.07,-1.63 37.67,-9.22 59.35,-16.81 21.68,-7.59 44.45,-15.18 77.51,-21.68 33.07,-6.5 76.44,-11.93 115.74,-14.1 39.3,-2.16 74.53,-1.08 112.48,-6.5 37.95,-5.42 78.6,-17.35 106.79,-26.02 28.18,-8.67 43.91,-14.09 64.78,-26.02 20.87,-11.93 46.89,-30.36 73.99,-53.66 27.1,-23.31 55.29,-51.51 75.08,-71.83 19.78,-20.33 31.16,-32.8 47.7,-37.95 16.53,-5.15 38.21,-2.98 57.19,10.3 18.97,13.28 35.23,37.68 46.08,55.84 10.84,18.16 16.26,30.08 20.05,45.54 3.79,15.44 5.96,34.41 5.15,52.03 -0.81,17.62 -4.61,33.88 -11.66,48.52 -7.04,14.63 -17.34,27.64 -30.08,35.77 -12.74,8.13 -27.91,11.39 -48.24,14.1 -20.33,2.71 -45.81,4.87 -69.66,6.5 -23.85,1.63 -46.08,2.71 -57.19,3.25 -11.11,0.54 -11.11,0.54 -5.96,3.26 5.15,2.7 15.44,8.13 34.15,18.97 18.7,10.84 45.8,27.1 71.28,45.54 25.48,18.42 49.33,39.02 69.12,69.38 19.78,30.35 35.5,70.47 44.18,104.08 8.67,33.6 10.29,60.71 10.84,89.98 0.54,29.27 -0.01,60.72 -4.07,87.01 -4.06,26.28 -11.65,47.43 -19.78,68.03 -8.13,20.6 -16.81,40.65 -31.45,63.15 -14.63,22.49 -35.23,47.43 -59.08,67.75 -23.86,20.33 -50.96,36.05 -83.75,50.96 -32.8,14.91 -71.29,29 -107.33,37.94 -36.05,8.94 -69.66,12.74 -89.71,15.46 -20.06,2.7 -26.56,4.33 -34.7,7.58 -8.13,3.26 -17.89,8.13 -30.08,14.91 -12.2,6.77 -26.84,15.44 -39.57,20.6 -12.74,5.14 -23.59,6.77 -39.57,2.98 -16,-3.8 -37.14,-13.01 -54.75,-20.6 -17.62,-7.59 -31.72,-13.55 -50.42,-13.82 -18.7,-0.27 -42.01,5.15 -62.07,13.28 -20.06,8.13 -36.86,18.97 -47.97,29.54 -11.11,10.57 -16.53,20.87 -19.24,33.61 -2.71,12.74 -2.71,27.92 4.07,38.76 6.77,10.84 20.32,17.34 50.67,17.61 30.36,0.28 77.52,-5.69 125.77,-14.9 48.24,-9.21 97.57,-21.69 157.47,-31.71 59.9,-10.03 130.37,-17.62 186.74,-17.62 56.38,0 98.66,7.59 135.79,25.21 37.14,17.61 69.11,45.26 91.34,72.64 22.22,27.37 34.7,54.47 39.85,82.38 5.15,27.92 2.97,56.65 -1.36,83.49 -4.34,26.83 -10.84,51.77 -18.16,69.65 -7.32,17.89 -15.44,28.73 -19.78,34.97 -4.34,6.23 -4.88,7.86 -11.66,2.98 -6.78,-4.88 -19.78,-16.26 -38.63,-27.1 -18.86,-10.85 -43.56,-21.14 -61.99,-27.37 -18.43,-6.24 -30.6,-8.41 -45.89,-10.85 -15.3,-2.44 -33.73,-5.15 -62.19,-3.25 -28.46,1.9 -66.95,8.4 -104.34,16.26 -37.41,7.86 -73.73,17.08 -130.65,30.09z"/>
  <path class="fil4" d="M3588.41 1041.73c140.01,0 253.51,113.5 253.51,253.5 0,140.01 -113.5,253.51 -253.51,253.51 -140,0 -253.5,-113.5 -253.5,-253.51 0,-140 113.5,-253.5 253.5,-253.5z"/>
  <path class="fil5" d="M3607.38 1195.26c50.7,0 91.79,41.1 91.79,91.79 0,50.69 -41.09,91.79 -91.79,91.79 -50.69,0 -91.78,-41.1 -91.78,-91.79 0,-50.69 41.09,-91.79 91.78,-91.79z"/>
  <path class="fil3" d="M4690.35 2074.7c-56.92,13 -134.43,29.8 -193.79,40.38 -59.35,10.57 -100.55,14.9 -146.08,12.47 -45.54,-2.44 -95.42,-11.66 -135.25,-27.92 -39.85,-16.27 -69.67,-39.57 -93.51,-70.47 -23.85,-30.9 -41.75,-69.39 -45.27,-114.92 -3.52,-45.54 7.32,-98.11 26.57,-137.41 19.24,-39.31 46.88,-65.32 79.68,-87.55 32.79,-22.22 70.74,-40.66 94.87,-51.77 24.12,-11.11 34.42,-14.9 39.57,-16.8 5.15,-1.9 5.15,-1.9 1.89,-4.06 -3.25,-2.18 -9.76,-6.51 -20.32,-10.3 -10.58,-3.8 -25.21,-7.06 -49.87,-21.69 -24.67,-14.64 -59.37,-40.66 -85.11,-62.61 -25.75,-21.95 -42.55,-39.84 -60.44,-65.05 -17.89,-25.2 -36.87,-57.73 -44.73,-98.38 -7.86,-40.66 -4.6,-89.45 -2.16,-114.65 2.44,-25.21 4.06,-26.83 0.27,-31.44 -3.79,-4.61 -13.01,-12.2 -20.87,-25.48 -7.86,-13.28 -14.37,-32.26 -16.26,-57.73 -1.9,-25.48 0.8,-57.46 13,-87 12.2,-29.54 33.88,-56.65 56.92,-77.25 23.04,-20.6 47.44,-34.69 67.5,-42.55 20.05,-7.86 35.77,-9.49 51.22,-8.95 15.45,0.54 30.62,3.26 44.99,6.78 14.37,3.52 27.92,7.86 45,6.24 17.07,-1.63 37.67,-9.22 59.35,-16.81 21.68,-7.59 44.45,-15.18 77.51,-21.68 33.07,-6.5 76.44,-11.93 115.74,-14.1 39.3,-2.16 74.53,-1.08 112.48,-6.5 37.95,-5.42 78.6,-17.35 106.79,-26.02 28.18,-8.67 43.91,-14.09 64.78,-26.02 20.87,-11.93 46.89,-30.36 73.99,-53.66 27.1,-23.31 55.29,-51.51 75.08,-71.83 19.78,-20.33 31.16,-32.8 47.7,-37.95 16.53,-5.15 38.21,-2.98 57.19,10.3 18.97,13.28 35.23,37.68 46.08,55.84 10.84,18.16 16.26,30.08 20.05,45.54 3.79,15.44 5.97,34.41 5.15,52.03 -0.81,17.62 -4.61,33.88 -11.66,48.52 -7.04,14.63 -17.34,27.64 -30.08,35.77 -12.74,8.13 -27.91,11.39 -48.24,14.1 -20.33,2.71 -45.81,4.87 -69.66,6.5 -23.85,1.63 -46.08,2.71 -57.19,3.25 -11.11,0.54 -11.11,0.54 -5.96,3.26 5.15,2.7 15.44,8.13 34.15,18.97 18.7,10.84 45.8,27.1 71.28,45.54 25.48,18.42 49.33,39.02 69.12,69.38 19.78,30.35 35.5,70.47 44.18,104.08 8.67,33.6 10.29,60.71 10.84,89.98 0.54,29.27 0,60.72 -4.07,87.01 -4.06,26.28 -11.65,47.43 -19.78,68.03 -8.13,20.6 -16.81,40.65 -31.45,63.15 -14.63,22.49 -35.23,47.43 -59.08,67.75 -23.86,20.33 -50.96,36.05 -83.75,50.96 -32.79,14.91 -71.29,29 -107.33,37.94 -36.05,8.94 -69.66,12.74 -89.71,15.46 -20.06,2.7 -26.56,4.33 -34.7,7.58 -8.13,3.26 -17.89,8.13 -30.08,14.91 -12.2,6.77 -26.84,15.44 -39.57,20.6 -12.74,5.14 -23.59,6.77 -39.57,2.98 -15.99,-3.8 -37.14,-13.01 -54.75,-20.6 -17.62,-7.59 -31.72,-13.55 -50.42,-13.82 -18.7,-0.27 -42.01,5.15 -62.07,13.28 -20.06,8.13 -36.86,18.97 -47.97,29.54 -11.11,10.57 -16.53,20.87 -19.24,33.61 -2.71,12.74 -2.71,27.92 4.07,38.76 6.77,10.84 20.32,17.34 50.68,17.61 30.35,0.28 77.51,-5.69 125.76,-14.9 48.24,-9.21 97.57,-21.69 157.47,-31.71 59.9,-10.03 130.37,-17.62 186.74,-17.62 56.38,0 98.66,7.59 135.8,25.21 37.13,17.61 69.1,45.26 91.33,72.64 22.23,27.37 34.7,54.47 39.85,82.38 5.15,27.92 2.97,56.65 -1.36,83.49 -4.34,26.83 -10.84,51.77 -18.16,69.65 -7.32,17.89 -15.44,28.73 -19.78,34.97 -4.34,6.23 -4.88,7.86 -11.66,2.98 -6.78,-4.88 -19.78,-16.26 -38.63,-27.1 -18.86,-10.85 -43.56,-21.14 -61.99,-27.37 -18.43,-6.24 -30.6,-8.41 -45.89,-10.85 -15.3,-2.44 -33.73,-5.15 -62.19,-3.25 -28.46,1.9 -66.95,8.4 -104.34,16.26 -37.41,7.86 -73.73,17.08 -130.65,30.09z"/>
  <path class="fil4" d="M4837.76 1041.73c140.01,0 253.51,113.5 253.51,253.5 0,140.01 -113.5,253.51 -253.51,253.51 -140,0 -253.5,-113.5 -253.5,-253.51 0,-140 113.5,-253.5 253.5,-253.5z"/>
  <path class="fil5" d="M4856.73 1195.26c50.7,0 91.79,41.1 91.79,91.79 0,50.69 -41.09,91.79 -91.79,91.79 -50.69,0 -91.78,-41.1 -91.78,-91.79 0,-50.69 41.09,-91.79 91.78,-91.79z"/>
 </g>
</svg>
