<?xml version="1.0" encoding="UTF-8"?>
<!DOCTYPE svg PUBLIC "-//W3C//DTD SVG 1.1//EN" "http://www.w3.org/Graphics/SVG/1.1/DTD/svg11.dtd">
<!-- Creator: CorelDRAW 2021 (64 Bit) -->
<svg xmlns="http://www.w3.org/2000/svg" xml:space="preserve" width="42.3332mm" height="42.3332mm" version="1.1" style="shape-rendering:geometricPrecision; text-rendering:geometricPrecision; image-rendering:optimizeQuality; fill-rule:evenodd; clip-rule:evenodd"
viewBox="0 0 4233.32 4233.32"
 xmlns:xlink="http://www.w3.org/1999/xlink"
 xmlns:xodm="http://www.corel.com/coreldraw/odm/2003">
 <defs>
  <style type="text/css">
   <![CDATA[
    .fil2 {fill:black}
    .fil0 {fill:#FF7700}
    .fil1 {fill:white}
   ]]>
  </style>
 </defs>
 <g id="Camada_x0020_1">
  <metadata id="CorelCorpID_0Corel-Layer"/>
  <g id="logo_olho_backpreto.cdr">
   <path class="fil0" d="M2361.35 4048.73c-160.34,36.64 -378.69,83.96 -545.9,113.74 -167.2,29.79 -283.26,41.99 -411.52,35.14 -128.27,-6.88 -268.77,-32.85 -380.99,-78.65 -112.24,-45.82 -196.24,-111.47 -263.41,-198.51 -67.19,-87.04 -117.59,-195.46 -127.51,-323.72 -9.93,-128.28 20.62,-276.38 74.83,-387.09 54.2,-110.71 132.08,-184.01 224.47,-246.61 92.37,-62.61 199.27,-114.53 267.23,-145.84 67.95,-31.3 96.96,-41.99 111.47,-47.32 14.5,-5.35 14.5,-5.35 5.34,-11.46 -9.17,-6.12 -27.49,-18.32 -57.26,-29.01 -29.78,-10.7 -71.02,-19.87 -140.48,-61.09 -69.48,-41.23 -167.22,-114.53 -239.75,-176.36 -72.54,-61.84 -119.86,-112.24 -170.25,-183.25 -50.4,-71 -103.86,-162.62 -126,-277.13 -22.14,-114.53 -12.97,-251.97 -6.1,-322.97 6.87,-71.01 11.45,-75.59 0.77,-88.57 -10.69,-12.97 -36.66,-34.36 -58.8,-71.77 -22.14,-37.4 -40.47,-90.87 -45.8,-162.62 -5.35,-71.77 2.27,-161.87 36.64,-245.08 34.36,-83.23 95.43,-159.58 160.33,-217.61 64.9,-58.02 133.63,-97.72 190.13,-119.86 56.49,-22.14 100.77,-26.72 144.3,-25.2 43.51,1.52 86.27,9.16 126.73,19.1 40.47,9.91 78.65,22.12 126.76,17.55 48.09,-4.58 106.12,-25.97 167.2,-47.34 61.07,-21.37 125.2,-42.75 218.35,-61.07 93.14,-18.32 215.31,-33.61 326.03,-39.71 110.7,-6.1 209.94,-3.06 316.85,-18.33 106.89,-15.27 221.4,-48.86 300.81,-73.29 79.4,-24.43 123.7,-39.7 182.49,-73.29 58.78,-33.6 132.08,-85.52 208.43,-151.17 76.34,-65.67 155.75,-145.09 211.48,-202.34 55.74,-57.26 87.8,-92.39 134.38,-106.89 46.57,-14.51 107.64,-8.39 161.1,29.01 53.45,37.41 99.25,106.14 129.8,157.29 30.54,51.16 45.8,84.75 56.49,128.28 10.69,43.51 16.81,96.95 14.51,146.58 -2.29,49.62 -12.99,95.44 -32.84,136.67 -19.85,41.22 -48.86,77.86 -84.75,100.77 -35.88,22.91 -78.62,32.08 -135.88,39.72 -57.27,7.62 -129.05,13.73 -196.23,18.31 -67.19,4.58 -129.8,7.62 -161.11,9.16 -31.3,1.52 -31.3,1.52 -16.79,9.17 14.5,7.62 43.52,22.91 96.21,53.44 52.67,30.53 129.03,76.35 200.8,128.28 71.77,51.9 138.96,109.93 194.69,195.44 55.74,85.5 100.02,198.51 124.45,293.19 24.43,94.67 29.01,171.02 30.55,253.48 1.52,82.46 -0.02,171.03 -11.45,245.1 -11.46,74.04 -32.85,133.61 -55.74,191.63 -22.91,58.03 -47.36,114.52 -88.58,177.89 -41.23,63.36 -99.26,133.61 -166.45,190.87 -67.19,57.26 -143.52,101.55 -235.9,143.54 -92.39,41.99 -200.81,81.69 -302.35,106.89 -101.56,25.18 -196.22,35.89 -252.72,43.53 -56.51,7.62 -74.82,12.21 -97.73,21.37 -22.91,9.16 -50.4,22.89 -84.75,41.99 -34.36,19.08 -75.6,43.51 -111.47,58.02 -35.88,14.5 -66.43,19.08 -111.47,8.4 -45.05,-10.69 -104.61,-36.66 -154.22,-58.03 -49.64,-21.37 -89.35,-38.17 -142.03,-38.93 -52.69,-0.77 -118.34,14.5 -174.84,37.41 -56.51,22.89 -103.83,53.45 -135.14,83.23 -31.3,29.76 -46.57,58.78 -54.19,94.66 -7.64,35.89 -7.64,78.65 11.45,109.2 19.08,30.53 57.24,48.84 142.76,49.61 85.52,0.77 218.36,-16.03 354.28,-41.99 135.9,-25.95 274.84,-61.08 443.59,-89.33 168.72,-28.24 367.23,-49.63 526.04,-49.63 158.81,0 277.91,21.39 382.52,71.02 104.6,49.62 194.68,127.49 257.29,204.61 62.61,77.11 97.74,153.45 112.25,232.09 14.5,78.64 8.38,159.58 -3.82,235.16 -12.23,75.59 -30.54,145.84 -51.16,196.22 -20.62,50.39 -43.51,80.94 -55.72,98.5 -12.22,17.55 -13.76,22.14 -32.84,8.39 -19.1,-13.75 -55.73,-45.8 -108.84,-76.34 -53.11,-30.55 -122.7,-59.54 -174.6,-77.1 -51.93,-17.58 -86.2,-23.68 -129.29,-30.55 -43.1,-6.88 -95,-14.52 -175.17,-9.17 -80.17,5.35 -188.59,23.66 -293.94,45.8 -105.37,22.14 -207.69,48.11 -368.02,84.77z"/>
   <path class="fil1" d="M2776.61 1138.9c394.4,0 714.1,319.71 714.1,714.11 0,394.4 -319.7,714.11 -714.1,714.11 -394.4,0 -714.11,-319.71 -714.11,-714.11 0,-394.4 319.71,-714.11 714.11,-714.11z"/>
   <path class="fil2" d="M2830.04 1571.39c142.8,0 258.56,115.76 258.56,258.57 0,142.8 -115.76,258.56 -258.56,258.56 -142.8,0 -258.56,-115.76 -258.56,-258.56 0,-142.81 115.76,-258.57 258.56,-258.57z"/>
  </g>
 </g>
</svg>
